<?xml version="1.0" encoding="UTF-8" standalone="no"?>
<!-- Created with Inkscape (http://www.inkscape.org/) -->

<svg
   width="2000"
   height="2000"
   viewBox="0 0 529.16665 529.16666"
   version="1.1"
   id="svg1"
   inkscape:version="1.4 (86a8ad7, 2024-10-11)"
   sodipodi:docname="Tractor FC logo.svg"
   xmlns:inkscape="http://www.inkscape.org/namespaces/inkscape"
   xmlns:sodipodi="http://sodipodi.sourceforge.net/DTD/sodipodi-0.dtd"
   xmlns="http://www.w3.org/2000/svg"
   xmlns:svg="http://www.w3.org/2000/svg">
  <sodipodi:namedview
     id="namedview1"
     pagecolor="#ffffff"
     bordercolor="#000000"
     borderopacity="0.25"
     inkscape:showpageshadow="2"
     inkscape:pageopacity="0.0"
     inkscape:pagecheckerboard="0"
     inkscape:deskcolor="#d1d1d1"
     inkscape:document-units="mm"
     inkscape:zoom="0.17417514"
     inkscape:cx="740.63382"
     inkscape:cy="1237.2604"
     inkscape:window-width="1366"
     inkscape:window-height="705"
     inkscape:window-x="-8"
     inkscape:window-y="-8"
     inkscape:window-maximized="1"
     inkscape:current-layer="layer1" />
  <defs
     id="defs1" />
  <g
     inkscape:label="Layer 1"
     inkscape:groupmode="layer"
     id="layer1">
    <g
       id="g1"
       transform="matrix(2.8601486,0,0,2.8721695,-35.732267,-108.96986)">
      <path
         d="M 190.31607,94.168384 C 185.6211,83.214638 179.01891,73.356425 170.50915,64.885671 161.99948,56.41494 152.09588,49.769745 141.09207,45.169226 c -11.44405,-4.819571 -23.54836,-7.229312 -36.01936,-7.229312 -12.471205,0 -24.575338,2.409741 -36.019649,7.229312 -11.00382,4.673506 -20.907415,11.245714 -29.416906,19.716445 -8.509669,8.470754 -15.185398,18.328967 -19.807099,29.282713 -4.84167,11.391596 -7.335905,23.440586 -7.335905,35.927886 0,12.41395 2.420881,24.46294 7.26265,35.85474 4.694956,10.95354 11.297234,20.81178 19.807099,29.28251 8.509491,8.4709 18.412996,15.11601 29.416905,19.71653 11.444208,4.81949 23.548366,7.22922 36.019545,7.22922 12.47099,0 24.57532,-2.40973 36.01935,-7.22922 11.00382,-4.67359 20.90741,-11.24563 29.41719,-19.71653 8.5095,-8.47073 15.18521,-18.32897 19.80682,-29.28251 4.84187,-11.3918 7.26256,-23.44079 7.26256,-35.85474 0.0724,-12.4873 -2.34745,-24.53629 -7.1892,-35.927886 z m -34.69891,35.927886 c 0,27.74896 -22.59473,50.31327 -50.54445,50.31327 -27.950014,0 -50.544766,-22.49124 -50.544766,-50.31327 0,-27.74921 22.594752,-50.313541 50.544766,-50.313541 27.94972,0 50.54445,22.491231 50.54445,50.313541 z"
         fill="#190C0D"
         id="path1"
         style="fill:#000000;fill-opacity:1;stroke-width:2.39608" />
      <path
         d="m 105.07342,190.48703 c -8.216254,0 -16.138912,-1.60656 -23.621704,-4.74668 -7.189304,-3.06695 -13.71813,-7.37539 -19.293438,-12.92526 -5.575397,-5.54987 -9.97685,-11.97592 -12.984663,-19.20523 -3.154431,-7.44848 -4.76823,-15.33501 -4.76823,-23.51386 0,-8.17859 1.613799,-16.06511 4.76823,-23.51367 3.081158,-7.156413 7.409266,-13.655364 12.984663,-19.205136 5.575308,-5.54986 12.030879,-9.931397 19.293438,-12.925344 7.482792,-3.14003 15.40545,-4.746679 23.621704,-4.746679 8.21617,0 16.13918,1.606649 23.62172,4.746679 7.1892,3.067024 13.71812,7.375484 19.29362,12.925344 5.57522,5.549772 9.97684,11.975897 12.9844,19.205136 3.1545,7.44856 4.7685,15.33508 4.7685,23.51367 0,8.17885 -1.614,16.06538 -4.7685,23.51386 -3.08109,7.15624 -7.40918,13.65536 -12.9844,19.20523 -5.5755,5.54987 -12.03105,9.93138 -19.29362,12.92526 -7.48254,3.14012 -15.47881,4.74668 -23.62172,4.74668 z"
         fill="#A90607"
         id="path2"
         style="fill:#bd0017;fill-opacity:1;stroke-width:2.39608" />
      <path
         d="m 105.07342,191.94749 c -8.362872,0 -16.505782,-1.60664 -24.208551,-4.89264 -7.409178,-3.14004 -14.011633,-7.59438 -19.733559,-13.21732 -5.722105,-5.69604 -10.19701,-12.26806 -13.278168,-19.64345 -3.227794,-7.66755 -4.914849,-15.70025 -4.914849,-24.09781 0,-8.32482 1.61371,-16.43051 4.914849,-24.09805 3.081158,-7.3754 7.556063,-14.020525 13.278168,-19.643463 5.721926,-5.695764 12.324381,-10.150379 19.733559,-13.217403 7.702769,-3.212934 15.77232,-4.892583 24.208551,-4.892583 8.36305,0 16.50596,1.606555 24.20873,4.892583 7.40918,3.14012 14.01146,7.594466 19.73356,13.217403 5.72212,5.696033 10.19683,12.268063 13.27801,19.643463 3.22777,7.66754 4.91512,15.70022 4.91512,24.09805 0,8.32449 -1.6138,16.43026 -4.91512,24.09781 -3.15452,7.37539 -7.62925,13.94741 -13.27801,19.64345 -5.7221,5.69575 -12.32438,10.15036 -19.73356,13.21732 -7.70277,3.21293 -15.84568,4.89264 -24.20873,4.89264 z m 0,-120.781664 c -7.996002,0 -15.772142,1.533566 -23.034695,4.600519 -7.04258,2.993947 -13.351532,7.229312 -18.780132,12.633019 -5.428601,5.403867 -9.683347,11.683836 -12.691159,18.694096 -3.080891,7.30259 -4.621613,14.97013 -4.621613,22.92973 0,7.9596 1.540722,15.70015 4.621613,22.92946 3.007812,7.01026 7.262558,13.29041 12.691159,18.6941 5.4286,5.40371 11.737552,9.63925 18.780132,12.63319 7.335924,3.06705 15.038693,4.60053 23.034695,4.60053 7.9963,0 15.77232,-1.53348 23.03488,-4.60053 7.0426,-2.99394 13.35126,-7.22948 18.77986,-12.63319 5.4286,-5.40369 9.68361,-11.68384 12.69125,-18.6941 3.08107,-7.30241 4.62152,-14.96986 4.62152,-22.92946 0,-7.9596 -1.54045,-15.70024 -4.62152,-22.92973 -3.00764,-7.01026 -7.26265,-13.290229 -12.69125,-18.694096 -5.4286,-5.403707 -11.73726,-9.639072 -18.77986,-12.633019 -7.3359,-3.066953 -15.03858,-4.600519 -23.03488,-4.600519 z"
         fill="#fffef1"
         id="path3"
         style="stroke-width:2.39608" />
      <path
         d="m 56.362365,64.812594 1.834048,2.117682 -2.787654,2.336932 7.115922,8.324761 -2.274169,1.898433 -7.115941,-8.324576 -2.787565,2.336753 -1.833957,-2.117682 z"
         fill="#fffef1"
         id="path4"
         style="stroke-width:2.39608" />
      <path
         d="m 75.729326,69.194131 -4.401632,-2.847971 -1.833958,0.949252 2.127462,4.089485 -2.640948,1.387304 -6.455569,-12.121895 5.061752,-2.628991 c 0.733536,-0.364956 1.540437,-0.584116 2.347425,-0.510753 0.806899,0 1.540454,0.291594 2.274169,0.657461 0.660192,0.438319 1.247218,1.022437 1.613996,1.752547 0.366758,0.729914 0.586829,1.460667 0.513484,2.263855 0,0.803276 -0.22007,1.533458 -0.660192,2.190759 l 5.061817,3.286006 z m -9.243404,-7.44849 1.687341,3.14003 2.420786,-1.2414 c 0.44014,-0.21916 0.733555,-0.584135 0.880263,-1.022437 0.146689,-0.43832 0.146689,-0.949091 -0.146689,-1.314228 -0.220071,-0.438319 -0.586848,-0.730823 -1.02697,-0.876639 -0.440122,-0.145796 -0.953606,-0.07246 -1.393835,0.145797 z"
         fill="#fffef1"
         id="path5"
         style="stroke-width:2.39608" />
      <path
         d="m 94.87606,63.060136 -3.08109,0.803295 -1.540439,-2.263587 -4.915115,1.241417 -0.293411,2.774966 -3.08109,0.803277 1.540627,-14.531809 3.081165,-0.803277 z m -8.803016,-7.52146 -0.513488,4.308532 2.93456,-0.730825 z"
         fill="#fffef1"
         id="path6"
         style="stroke-width:2.39608" />
      <path
         d="m 98.470963,52.325658 c 0.660194,-1.095442 1.467092,-1.971707 2.567407,-2.628901 1.10051,-0.657479 2.27419,-0.94927 3.5213,-1.022348 1.32048,0 2.49433,0.292506 3.668,0.949342 1.1005,0.65748 1.98084,1.533476 2.64095,2.628812 l -2.56769,1.387501 c -0.36676,-0.657479 -0.88025,-1.168431 -1.54044,-1.533566 -0.66019,-0.364956 -1.39383,-0.584117 -2.12746,-0.584117 -0.73355,0 -1.46718,0.219161 -2.05394,0.584117 -0.66019,0.364957 -1.10058,0.876622 -1.46718,1.533566 -0.36678,0.657462 -0.51349,1.314406 -0.51349,2.044588 0,0.729931 0.22008,1.460578 0.58685,2.044605 0.36676,0.657479 0.88025,1.095514 1.54044,1.460667 0.66019,0.364957 1.32047,0.510755 2.0542,0.510755 0.8069,0 1.46709,-0.219143 2.1272,-0.657462 0.66019,-0.43832 1.17386,-0.949359 1.46735,-1.606464 l 2.64078,1.387483 c -0.58685,1.095246 -1.46709,2.044605 -2.5674,2.774876 -1.10051,0.729933 -2.34745,1.022437 -3.66793,1.095263 -1.32056,0 -2.49432,-0.291612 -3.59464,-0.949269 -1.10051,-0.65748 -1.980842,-1.460489 -2.641035,-2.555735 -0.660194,-1.095513 -0.953617,-2.263748 -1.026964,-3.505255 0,-1.095335 0.36677,-2.263676 0.953692,-3.359012 z"
         fill="#fffef1"
         id="path7"
         style="stroke-width:2.39608" />
      <path
         d="m 127.59481,51.887428 -0.58682,2.701888 -3.52131,-0.803277 -2.34743,10.661688 -2.93427,-0.657481 2.34743,-10.66158 -3.52127,-0.803294 0.58682,-2.701889 z"
         fill="#fffef1"
         id="path8"
         style="stroke-width:2.39608" />
      <path
         d="m 131.18875,67.003354 c -0.73354,-1.022151 -1.1005,-2.19076 -1.24721,-3.432178 -0.0725,-1.2414 0.14668,-2.482819 0.66017,-3.578065 0.58685,-1.16834 1.32048,-2.117682 2.42099,-2.774893 1.02697,-0.729915 2.20054,-1.095336 3.44776,-1.2414 1.24711,-0.07246 2.49433,0.145796 3.59464,0.657461 1.17385,0.584117 2.12746,1.314495 2.78756,2.409741 0.73354,1.022437 1.10059,2.190777 1.24721,3.432177 0.0724,1.241419 -0.1467,2.482837 -0.66018,3.578083 -0.58685,1.168323 -1.32058,2.117682 -2.42108,2.774984 -1.02696,0.729913 -2.20082,1.095424 -3.44776,1.2414 -1.2471,0.145797 -2.49432,-0.07246 -3.66791,-0.657462 -1.10048,-0.584135 -2.05419,-1.387323 -2.71429,-2.409759 z m 6.16204,0.07246 c 0.73355,-0.07246 1.39383,-0.292504 2.05411,-0.729914 0.58684,-0.43832 1.10033,-0.949359 1.39384,-1.606375 0.29342,-0.657479 0.44013,-1.38759 0.36677,-2.117968 -0.0725,-0.729914 -0.29343,-1.387304 -0.73354,-1.971511 -0.44013,-0.584116 -0.95361,-1.095425 -1.61399,-1.387572 -0.66018,-0.291612 -1.39383,-0.43832 -2.12727,-0.364975 -0.73357,0.07246 -1.39375,0.292523 -1.98084,0.729931 -0.58685,0.438321 -1.10025,0.949253 -1.39376,1.606555 -0.29341,0.657479 -0.44012,1.387304 -0.36677,2.117682 0.0725,0.729933 0.29343,1.387572 0.73355,1.971707 0.44013,0.584117 0.95369,1.095335 1.61407,1.387393 0.58685,0.292506 1.3202,0.438321 2.05394,0.364958 z"
         fill="#fffef1"
         id="path9"
         style="stroke-width:2.39608" />
      <path
         d="m 150.11575,79.636557 0.95361,-5.184707 -1.61371,-1.314496 -2.93454,3.505256 -2.27416,-1.898613 8.80328,-10.588597 4.40145,3.578332 c 0.66019,0.510773 1.1005,1.168341 1.39373,1.898611 0.29341,0.729933 0.36677,1.533483 0.22007,2.33667 -0.1467,0.803277 -0.44012,1.533566 -1.02697,2.190777 -0.51349,0.657462 -1.17385,1.095247 -1.90757,1.387395 -0.73355,0.291612 -1.54045,0.364957 -2.2741,0.21916 l -1.10031,5.914817 z m 3.37442,-11.391786 -2.27408,2.701894 2.12746,1.752727 c 0.36676,0.292523 0.8069,0.438319 1.32047,0.364957 0.51349,-0.07246 0.88025,-0.219142 1.17386,-0.65657 0.29341,-0.364957 0.44012,-0.803276 0.36676,-1.314495 -0.0725,-0.511665 -0.29341,-0.876626 -0.6602,-1.241495 z"
         fill="#fffef1"
         id="path10"
         style="stroke-width:2.39608" />
      <path
         d="m 82.699094,195.08752 -3.814517,10.22319 3.374401,1.24142 -0.953705,2.62899 -9.756617,-3.57826 0.953606,-2.62881 3.594661,1.3145 2.714295,-7.2295 -2.274179,0.51167 -0.660181,-2.70207 4.034845,-0.87664 z"
         fill="#fffef1"
         id="path11"
         style="stroke-width:2.39608" />
      <path
         d="m 100.30447,206.26007 -4.548265,5.69601 -3.374476,-0.36495 3.08089,-3.79741 c -0.953605,-0.14579 -1.760604,-0.51077 -2.494068,-1.02216 -0.660194,-0.51166 -1.173857,-1.16852 -1.540714,-1.97172 -0.366758,-0.80326 -0.440129,-1.60663 -0.366758,-2.4828 0.0724,-0.94936 0.440117,-1.75255 0.953692,-2.40984 0.513488,-0.72993 1.24684,-1.24142 2.053914,-1.53348 0.88027,-0.36495 1.760616,-0.43832 2.787566,-0.2916 1.027239,0.14579 1.833963,0.43831 2.641037,0.94936 0.733552,0.51074 1.320472,1.16832 1.687342,1.97151 0.36678,0.80326 0.51349,1.67964 0.36678,2.62898 -0.0725,0.94928 -0.51348,1.89863 -1.24714,2.62873 z m -5.648575,-2.11768 c 0.366783,0.4383 0.880258,0.73083 1.467092,0.80327 0.586835,0.0725 1.173681,-0.0724 1.613798,-0.43831 0.440129,-0.36496 0.733552,-0.80328 0.806899,-1.38757 0.07252,-0.58414 -0.07252,-1.09527 -0.440117,-1.53348 -0.366782,-0.43832 -0.88027,-0.65749 -1.46718,-0.72993 -0.660193,-0.0725 -1.173856,0.0724 -1.613985,0.43831 -0.440141,0.36496 -0.733552,0.80328 -0.806911,1.38757 -0.146693,0.51077 0,1.02217 0.440141,1.46041 z"
         fill="#fffef1"
         id="path12"
         style="stroke-width:2.39608" />
      <path
         d="m 108.4481,201.65955 -0.29341,-2.77488 10.19701,-1.16833 0.22005,2.11768 -3.81452,12.12206 -3.22788,0.36498 3.52112,-11.4646 z"
         fill="#fffef1"
         id="path13"
         style="stroke-width:2.39608" />
      <path
         d="m 130.67526,207.86662 c -1.02698,-0.29252 -1.90731,-0.80327 -2.78766,-1.67964 -0.80689,-0.87663 -1.46709,-1.89843 -1.98058,-3.21293 -0.51348,-1.3145 -0.66019,-2.55592 -0.66019,-3.72424 0.0725,-1.16832 0.44014,-2.19076 1.02715,-3.06704 0.58685,-0.87662 1.46718,-1.46039 2.56749,-1.89861 1.10051,-0.36496 2.12749,-0.43833 3.15444,-0.21916 1.02696,0.29252 1.90732,0.80327 2.71431,1.67946 0.80689,0.87663 1.46709,1.89871 1.98058,3.21321 0.51348,1.31448 0.73354,2.55591 0.66019,3.72423 -0.0725,1.16832 -0.36678,2.19076 -1.02698,3.06704 -0.58682,0.87574 -1.46735,1.46038 -2.56757,1.89862 -1.02698,0.36495 -2.05422,0.43831 -3.08118,0.21916 z m 3.66791,-4.6736 c 0.22005,-0.80326 0.0725,-1.8986 -0.36677,-3.21293 -0.51349,-1.31448 -1.1005,-2.26375 -1.83424,-2.70208 -0.73352,-0.4383 -1.46708,-0.58411 -2.27408,-0.29159 -0.80689,0.29159 -1.32028,0.87662 -1.54045,1.67963 -0.22005,0.80327 -0.0725,1.8987 0.36679,3.21292 0.51347,1.3145 1.10031,2.26386 1.83405,2.7021 0.73352,0.43831 1.46708,0.58412 2.27407,0.2925 0.8069,-0.2925 1.32048,-0.87662 1.54046,-1.67972 z"
         fill="#fffef1"
         id="path14"
         style="stroke-width:2.39608" />
      <path
         d="m 186.13512,128.19757 v -3.79731 h -3.81461 v -3.87024 h -3.8148 v 3.79714 h -3.81462 v 3.79734 h -3.88815 v 3.7973 h 3.81478 v 3.79716 h 3.81463 v 3.79731 h 3.81462 v -3.79731 h 3.8148 v -3.79716 h 3.81463 v -3.7973 h -3.74128 z m -3.81461,3.79713 h -3.8148 v -3.79713 h 3.8148 z"
         fill="#fffef1"
         id="path15"
         style="stroke-width:2.39608" />
      <path
         d="m 35.454773,128.19757 v -3.79731 h -3.814802 v -3.87024 h -3.888076 v 3.79714 h -3.814623 v 3.79734 h -3.814694 v 3.7973 h 3.814694 v 3.79716 h 3.814623 v 3.79731 h 3.814713 v -3.79731 h 3.814623 v -3.79716 h 3.814803 v -3.7973 h -3.741261 z m -3.814802,3.79713 h -3.888076 v -3.79713 h 3.814713 v 3.79713 z"
         fill="#fffef1"
         id="path16"
         style="stroke-width:2.39608" />
      <path
         d="m 105.07315,219.62365 c -12.17767,0 -23.915221,-2.33693 -35.065662,-7.01053 -10.710583,-4.52743 -20.320674,-10.95357 -28.610183,-19.20522 -8.289796,-8.25167 -14.745277,-17.81793 -19.293527,-28.47934 -4.695057,-11.02655 -7.042494,-22.78357 -7.042494,-34.90537 0,-12.12216 2.347437,-23.80601 7.042494,-34.905643 4.54825,-10.66149 11.003731,-20.227664 19.293527,-28.479329 8.289509,-8.105505 17.8996,-14.604707 28.683439,-19.132238 11.077185,-4.67349 22.888082,-7.010242 35.065746,-7.010242 12.1777,0 23.91523,2.336752 35.06568,7.010242 10.71057,4.527531 20.32057,10.953655 28.61019,19.205315 8.28978,8.251683 14.74536,17.817839 19.29363,28.479346 4.69486,11.026539 7.04238,22.783469 7.04238,34.905359 0,12.12206 -2.34752,23.80601 -7.04238,34.90565 -4.54827,10.6614 -11.00385,20.22766 -19.29363,28.47932 -8.28962,8.25167 -17.89962,14.67781 -28.61019,19.20522 -11.22379,4.60053 -22.96134,6.93746 -35.13902,6.93746 z m 0,-177.740519 c -11.957518,0 -23.548363,2.336842 -34.478922,6.937344 -10.563679,4.454436 -20.027062,10.807483 -28.169973,18.84018 -8.142891,8.10569 -14.525098,17.598856 -19.000004,28.041295 -4.6217,10.88038 -6.969138,22.41816 -6.969138,34.32124 0,11.90282 2.347438,23.4405 6.969138,34.32124 4.474906,10.51525 10.857113,19.93551 19.000004,28.04102 8.142911,8.10578 17.606294,14.45883 28.169973,18.91335 10.930559,4.60051 22.521404,6.93726 34.478922,6.93726 11.95751,0 23.54836,-2.33675 34.47892,-6.93726 10.56368,-4.45452 20.02707,-10.80757 28.16997,-18.91335 8.14291,-8.10551 14.52511,-17.52577 19.0001,-28.04102 4.62162,-10.88074 6.96905,-22.41842 6.96905,-34.32124 0,-11.90308 -2.34743,-23.44086 -6.96905,-34.32124 -4.47499,-10.515516 -10.85719,-19.935605 -19.0001,-28.041295 -8.1429,-8.105774 -17.60629,-14.458732 -28.16997,-18.913257 -10.93056,-4.527425 -22.52141,-6.864267 -34.47892,-6.864267 z"
         fill="#EDC12E"
         id="path17"
         style="fill:#ffc836;fill-opacity:1;stroke-width:2.39608" />
      <path
         d="m 70.960649,198.37355 c -0.44014,-0.21916 -0.953696,-0.51077 -1.393836,-0.72993 -6.822418,-3.57816 -13.13137,-8.17867 -18.633244,-13.65537 -7.042667,-7.01034 -12.544524,-15.11602 -16.432421,-24.24396 -2.200895,-5.1119 -3.814802,-10.44242 -4.768497,-15.9192 l 1.320473,-0.21917 c 0.953695,5.3308 2.567691,10.5886 4.694885,15.62706 3.814891,8.90896 9.243492,16.94167 16.139184,23.80601 5.4286,5.40369 11.590917,9.93113 18.266467,13.43639 0.440123,0.21915 0.953607,0.51077 1.393729,0.72991 z"
         fill="#EDC12E"
         id="path18"
         style="fill:#ffc836;fill-opacity:1;stroke-width:2.39608" />
      <path
         d="m 31.126843,116.29449 -1.320473,-0.21917 c 1.027059,-5.33061 2.567584,-10.58841 4.694974,-15.62716 3.594643,-8.397548 8.583103,-15.992282 14.818711,-22.637407 l 1.026951,0.94936 c -6.162315,6.49922 -11.077163,13.947425 -14.525206,22.199177 -2.127462,4.89284 -3.667898,10.07748 -4.694957,15.33501 z"
         fill="#EDC12E"
         id="path19"
         style="fill:#ffc836;fill-opacity:1;stroke-width:2.39608" />
      <path
         d="m 179.01937,116.29475 c -0.9536,-5.2578 -2.5676,-10.36963 -4.62179,-15.33509 -3.44775,-8.032694 -8.21626,-15.408089 -14.15834,-21.761316 l 1.02724,-0.949092 c 6.0887,6.498952 10.93054,13.947424 14.45157,22.199098 2.12746,5.03874 3.74154,10.29654 4.69514,15.62715 z"
         fill="#EDC12E"
         id="path20"
         style="fill:#ffc836;fill-opacity:1;stroke-width:2.39608" />
      <path
         d="m 140.28579,197.78943 -0.66018,-1.24141 c 6.82243,-3.50528 13.13136,-8.10578 18.63323,-13.58256 6.89578,-6.86436 12.32438,-14.89678 16.13919,-23.80573 2.12729,-5.03873 3.74126,-10.22346 4.69498,-15.55425 l 1.32047,0.21914 c -1.02698,5.4037 -2.56769,10.7345 -4.76852,15.84614 -3.88788,9.05485 -9.38983,17.23371 -16.43242,24.24397 -5.57522,5.62284 -11.95751,10.29626 -18.92675,13.87462 z"
         fill="#EDC12E"
         id="path21"
         style="fill:#ffc836;fill-opacity:1;stroke-width:2.39608" />
      <path
         d="m 144.24749,126.37195 v -1.97169 c 0,-4.52744 -3.66799,-8.1786 -8.21626,-8.1786 h -29.63707 c -4.40163,-9.05512 -13.64486,-15.26219 -24.428693,-15.33509 -0.07252,0 -0.07252,0 -0.146693,0 -15.038598,0 -27.289636,12.19498 -27.289636,27.16483 0,9.63925 4.988479,18.10998 12.617638,22.92947 v -6.86408 c -0.513486,-0.43832 -1.02697,-0.94936 -1.467093,-1.53348 -3.374501,-3.72433 -5.281982,-8.39792 -5.575325,-13.29049 -0.07246,-0.80328 0.586847,-1.46038 1.393836,-1.46038 h 2.053921 c 5.355345,0 9.756976,4.38151 9.756976,9.71203 v 16.35754 c 1.760613,0.58413 3.594555,1.02235 5.501876,1.16833 v -17.52587 c 0,-8.39754 -6.822438,-15.18882 -15.258852,-15.18882 -0.953607,0 -1.687055,-0.80328 -1.687055,-1.67965 0,-0.21914 0.07246,-0.4383 0.146689,-0.65747 0.513485,-1.31422 1.173855,-2.55564 1.980666,-3.72423 0.806899,-1.16834 1.68734,-2.26359 2.714292,-3.28602 4.034782,-4.0163 9.463387,-6.27997 15.185488,-6.27997 5.721926,0 11.150529,2.26367 15.185311,6.27997 1.026963,1.02243 1.907296,2.11768 2.714295,3.28602 0.806909,1.16859 1.467079,2.41001 1.980859,3.72423 0.44011,1.09552 -0.36679,2.33695 -1.61409,2.33695 -4.254745,0 -8.069551,1.67944 -10.783833,4.45434 -2.787654,2.77488 -4.474911,6.5723 -4.474911,10.73447 v 17.52586 c 1.907484,-0.21915 3.741446,-0.58411 5.50215,-1.16832 v -16.35754 c 0,-2.62872 1.02695,-5.03846 2.8609,-6.86408 1.833962,-1.82554 4.328118,-2.84796 6.895694,-2.84796 h 2.0542 c 0.80691,0 1.39382,0.65746 1.39382,1.46039 -0.14668,2.40974 -0.66019,4.74667 -1.5407,6.93715 -0.73355,1.8259 -1.68734,3.43218 -2.787564,4.89285 -0.806899,1.09525 -1.760704,2.11769 -2.787655,2.99395 v 6.86408 c 2.787655,-1.75243 5.208439,-4.0161 7.189299,-6.6451 h 23.3281 c 1.61406,6.28024 7.40927,10.88076 14.15834,10.88076 h 0.14669 c 7.92266,-0.0725 14.37824,-6.49921 14.52512,-14.38575 0.14669,-7.01052 -4.91512,-12.99833 -11.59085,-14.45881 z m -17.45949,11.9029 h -19.58685 c 1.24695,-3.14012 1.98058,-6.5723 1.98058,-10.15035 0,-1.97172 -0.22006,-3.87014 -0.58684,-5.76885 h 27.50961 c 1.17386,0 2.12746,0.94936 2.12746,2.11768 v 1.97151 c -5.94209,1.16861 -10.49033,5.91501 -11.44405,11.83001 z m 14.45168,10.88049 c -4.69498,0 -8.50959,-3.79716 -8.50959,-8.47075 0,-4.67357 3.81461,-8.47064 8.50959,-8.47064 4.69514,0 8.50968,3.79707 8.50968,8.47064 0,4.67359 -3.81454,8.47075 -8.50968,8.47075 z"
         fill="#fffef1"
         id="path22"
         style="stroke-width:2.39608" />
    </g>
  </g>
</svg>
